ply
format ascii 1.0
element vertex 752
property float32 x
property float32 y
property float32 z
element face 1500
property list uint8 int32 vertex_indices
end_header
0.015631 -0.040060 0.270403
0.018180 0.090759 0.231751
0.018700 -0.063991 -0.226248
0.019237 0.014165 0.270810
0.021569 0.064210 0.191179
0.020158 0.100089 0.187148
0.020483 -0.060088 0.221299
0.021676 -0.110416 0.226656
0.021140 -0.130146 -0.207645
0.020982 -0.111688 0.263015
0.022300 0.061665 -0.147245
0.021764 -0.099521 0.292625
0.022383 -0.089106 -0.189939
0.022080 0.075243 0.261140
0.022481 -0.030667 -0.268758
0.022803 -0.158122 -0.239742
0.023222 0.103466 -0.176644
0.023830 -0.102396 -0.290508
0.024108 -0.049911 0.320789
0.024093 0.054567 -0.214118
0.024136 -0.003134 -0.187907
0.024786 -0.130753 -0.271268
0.025351 0.025996 -0.235510
0.026122 0.128742 0.206811
0.026969 0.025840 0.286760
0.028135 -0.003518 -0.261291
0.029165 0.106193 0.242804
0.030939 0.086072 0.173253
0.030142 -0.035099 0.213942
0.035114 0.066124 -0.220972
0.037258 -0.046718 -0.278966
0.040735 -0.138997 -0.212025
0.040812 -0.071506 0.217715
0.039680 -0.043941 0.313892
0.041800 -0.106215 0.232780
0.046196 -0.103973 0.267662
0.044473 -0.124176 -0.228782
0.045186 -0.030236 0.292211
0.046918 -0.094314 -0.280164
0.051303 0.097679 -0.160617
0.047514 -0.011216 -0.253195
0.050514 0.038783 0.185987
0.062695 0.126359 0.195431
0.057916 0.008702 0.198498
0.055844 -0.096724 -0.225709
0.056004 0.007409 -0.158573
0.056602 0.072180 -0.149379
0.060335 -0.061440 0.231052
0.058524 -0.035351 -0.175937
0.065788 0.093650 0.245836
0.063934 0.097057 -0.177451
0.070744 -0.069356 -0.204510
0.075879 -0.026919 0.254480
0.076203 0.008627 -0.235496
0.083248 -0.008354 -0.167134
0.080130 -0.055760 -0.221062
0.081420 0.048848 -0.217438
0.085950 0.002166 0.260253
0.083120 0.061100 0.257645
0.094443 0.110577 0.190689
0.091007 0.075280 -0.187156
0.095524 0.004589 0.222218
0.098804 0.060695 -0.215449
0.103554 0.095384 0.252511
0.106229 -0.014360 -0.181005
0.108538 0.116902 0.198873
0.118355 0.076525 -0.151798
0.124786 -0.002496 -0.201105
0.126772 0.005772 -0.159892
0.143857 0.100592 0.186113
0.133095 0.034938 -0.148041
0.149425 0.078839 -0.166915
0.149715 0.029378 -0.208728
0.151807 0.058289 0.187065
0.155900 0.039826 0.198080
0.159331 0.062300 0.248251
0.168290 0.077323 -0.157174
0.179510 0.027884 0.228219
0.164409 0.042066 0.247893
0.174015 0.095737 0.230055
0.183814 0.031687 -0.205443
0.195037 0.061285 -0.190736
0.197959 -0.001157 -0.183741
0.199063 0.047912 0.251204
0.201990 0.027138 -0.134255
0.208436 0.103682 0.196608
0.201415 0.001271 -0.159878
0.208486 0.084845 0.176992
0.228518 0.046378 -0.126021
0.235748 0.070783 0.248149
0.245052 0.095882 0.227095
0.243422 0.073710 -0.157305
0.250154 0.016430 0.230675
0.249601 -0.004127 -0.143373
0.252133 -0.001957 -0.196211
0.254477 0.062755 0.167292
0.256611 -0.011972 -0.173229
0.255930 0.090610 0.177216
0.276493 0.036807 -0.112808
0.281594 0.061609 -0.124241
0.297537 0.072611 -0.169557
0.280497 0.021138 0.183036
0.280850 0.049678 -0.195225
0.292759 0.011516 0.195251
0.292664 0.101544 0.208900
0.290343 0.043704 0.256463
0.297626 0.004735 0.224134
0.308491 0.015627 -0.204984
0.304356 0.075051 -0.144738
0.309097 0.054865 0.154405
0.314097 0.022296 0.255317
0.313745 0.077554 0.248576
0.326304 -0.022257 -0.127777
0.331468 0.045224 -0.096818
0.339575 0.100046 0.172528
0.337443 0.006424 0.175403
0.337170 0.004362 -0.095115
0.347328 0.094305 0.234160
0.357189 0.085216 0.151422
0.366093 0.023946 0.149352
0.361357 0.059393 0.141748
0.362390 0.049565 -0.196879
0.364540 0.068324 -0.110758
0.372620 -0.039660 -0.174514
0.381597 0.105713 0.181345
0.379511 0.022945 -0.206275
0.379675 -0.008676 -0.091590
0.380048 -0.000855 0.255095
0.387570 0.038133 -0.087459
0.396501 -0.030222 -0.198628
0.392317 0.068306 0.256888
0.405675 0.076330 -0.160635
0.401843 0.043611 0.262922
0.408606 0.100026 0.227158
0.404255 0.056325 -0.187770
0.407977 -0.021028 0.238250
0.409935 0.071539 -0.120182
0.426485 0.085691 0.158042
0.426955 -0.022098 0.197444
0.442963 -0.052356 -0.138505
0.435480 0.063817 0.251862
0.440203 -0.042331 -0.112765
0.443472 -0.034287 -0.196030
0.444998 0.040158 0.141484
0.446546 -0.018541 0.246417
0.457357 -0.031982 -0.093263
0.458437 0.005422 -0.082667
0.467975 0.068131 0.238147
0.467524 -0.010676 -0.196191
0.479507 0.083744 0.187913
0.467355 0.042553 -0.099663
0.479889 0.050215 -0.117880
0.483540 -0.000965 0.140732
0.489304 0.046830 -0.145561
0.486700 -0.021375 -0.079529
0.493774 0.000730 0.246336
0.498452 -0.055970 -0.091587
0.493424 -0.070798 -0.160207
0.497165 -0.047786 0.206877
0.505541 0.067809 0.212031
0.501288 0.030337 -0.163565
0.499509 0.013018 -0.177271
0.503426 -0.026044 0.148214
0.512139 0.011367 0.128037
0.514853 -0.023459 -0.184040
0.525948 0.033123 0.138705
0.519423 0.027776 -0.104982
0.523650 0.034470 0.235266
0.526753 -0.087285 -0.137231
0.529583 0.055880 0.160892
0.538147 -0.066175 -0.079975
0.533557 0.061030 0.184935
0.533087 -0.059408 -0.185866
0.536218 0.053207 0.207931
0.539324 -0.015324 0.121838
0.566679 -0.052899 -0.058484
0.565183 -0.030523 -0.053490
0.569184 -0.042934 0.230838
0.572913 0.002907 -0.167153
0.567989 -0.065472 0.218039
0.579842 0.034444 0.132020
0.574957 0.011109 -0.076469
0.569919 -0.073621 0.184595
0.575640 0.024409 -0.112139
0.574105 0.052751 0.179766
0.577172 -0.084731 -0.110984
0.581557 -0.099655 -0.152986
0.593990 0.026257 -0.093665
0.589179 -0.063639 0.168769
0.595654 0.039402 0.219888
0.593227 -0.009475 0.238525
0.608437 -0.034642 0.116334
0.609422 -0.075637 0.190248
0.611550 0.016654 -0.148372
0.615574 0.013914 -0.056308
0.620919 -0.079865 -0.165938
0.622354 -0.100745 -0.109956
0.629147 0.001704 -0.040439
0.632826 -0.018190 0.106500
0.639166 -0.069943 0.142798
0.649795 0.067463 0.166532
0.642065 -0.078385 0.160847
0.650444 0.040284 0.112471
0.641922 -0.042601 -0.171139
0.651965 -0.019900 -0.028605
0.649396 0.011949 0.101821
0.653944 -0.008113 0.243406
0.657918 -0.095138 -0.146388
0.657447 -0.056127 0.223547
0.670383 0.059979 0.122534
0.665818 -0.075447 -0.160678
0.676833 -0.100138 -0.070916
0.690510 0.049526 -0.052279
0.684493 0.054316 -0.090534
0.679058 -0.031730 -0.178460
0.684446 -0.052954 -0.028029
0.696937 -0.109405 -0.092683
0.690731 0.045157 -0.123111
0.698391 0.005742 -0.009245
0.711724 -0.074089 0.128961
0.701913 0.071366 0.195460
0.708798 0.041557 0.090070
0.732204 0.082107 0.178786
0.716710 -0.071474 -0.031527
0.723241 -0.071034 0.228560
0.722105 0.029741 -0.009953
0.727727 0.008751 0.251498
0.723275 -0.029557 0.255469
0.732298 0.055683 0.090478
0.733000 0.085858 0.153429
0.726588 -0.042612 -0.183123
0.733409 -0.097459 -0.142911
0.742112 0.012261 -0.170551
0.735662 -0.107728 -0.115775
0.739013 0.066950 -0.086082
0.742244 -0.089963 0.153748
0.747876 -0.026418 0.009354
0.746141 0.013463 0.070314
0.758958 0.037786 -0.153180
0.753574 0.084554 0.123085
0.750664 -0.098197 -0.057941
0.750155 0.066553 -0.051394
0.751532 0.052401 -0.019480
0.747647 -0.092297 0.182579
0.763828 -0.081376 -0.165173
0.779265 -0.005443 0.062183
0.788777 0.033938 0.012419
0.784632 0.053275 0.234964
0.781917 -0.108143 -0.132357
0.782465 -0.047567 0.080286
0.786100 -0.087499 0.215508
0.796718 -0.111979 -0.088902
0.795588 -0.066019 0.241990
0.806105 -0.081750 -0.015874
0.800014 0.069260 0.086437
0.803166 0.053177 -0.143478
0.818303 0.007177 -0.172199
0.806456 0.005445 0.056203
0.813976 -0.049668 0.015952
0.828806 -0.067849 0.088858
0.820363 0.096933 0.156059
0.826877 0.079799 0.211910
0.830923 -0.094776 -0.036785
0.824146 -0.001421 0.259979
0.829157 0.064305 -0.131573
0.838312 -0.109183 -0.073891
0.831503 0.074216 -0.017705
0.832659 -0.086352 0.115746
0.838757 -0.034387 -0.174148
0.834988 -0.015316 0.059573
0.835023 0.052305 0.008107
0.841025 0.052055 0.068192
0.843131 0.088316 -0.078908
0.844580 -0.100038 0.165609
0.847644 0.042056 0.247541
0.851357 0.103673 0.123173
0.853426 0.096092 0.193603
0.855608 0.020045 -0.164924
0.859989 -0.083995 -0.150601
0.851948 0.083066 -0.006032
0.859372 0.060750 -0.136633
0.866759 0.088692 0.046980
0.872578 -0.007987 -0.167948
0.869300 -0.087537 0.213568
0.866701 0.118714 0.092806
0.872372 -0.037051 0.251313
0.875726 0.090458 -0.096064
0.873557 -0.054285 0.022144
0.878909 0.126566 -0.017253
0.880282 -0.100120 -0.123177
0.883951 -0.069710 0.084608
0.891690 -0.096974 0.183225
0.890056 -0.094991 0.058916
0.897353 -0.075669 -0.008070
0.900685 0.034360 0.245379
0.893614 0.130439 -0.050288
0.893697 -0.106102 -0.085669
0.893932 0.126740 0.168789
0.904035 -0.092606 0.133044
0.898675 -0.063567 0.233675
0.897685 -0.083914 0.013382
0.906823 -0.001556 0.250710
0.903579 0.144233 0.062205
0.915294 0.064124 0.227720
0.916377 -0.042764 0.458056
0.917922 0.147492 0.013988
0.925776 0.064619 -0.121320
0.935065 -0.042472 -0.146124
0.923367 0.035204 -0.142199
0.928143 0.159151 0.103099
0.936174 -0.121003 0.062216
0.941837 -0.033102 0.236671
0.936122 0.092302 0.203606
0.932129 -0.070967 0.216886
0.942822 -0.088179 0.160633
0.938167 -0.074452 0.489621
0.940606 0.154873 -0.014311
0.943483 -0.036454 0.427284
0.945804 -0.065943 0.421427
0.944077 -0.011425 0.423124
0.951151 0.139128 0.165124
0.946981 -0.025817 0.500724
0.947924 -0.097751 -0.388466
0.953466 -0.079410 0.127050
0.953323 -0.090651 -0.029697
0.955360 0.150625 -0.045877
0.960815 -0.107598 0.115023
0.955811 -0.108936 -0.410798
0.956898 -0.102085 -0.019190
0.956782 -0.086384 -0.061217
0.958561 -0.094307 0.435236
0.959556 -0.075275 0.511602
0.966307 -0.111465 0.011352
0.968108 -0.045800 0.520306
0.966268 0.163136 0.094546
0.965912 -0.072472 -0.386543
0.965775 0.061897 -0.118582
0.970987 -0.129326 -0.364160
0.970419 -0.094734 -0.023173
0.969789 -0.084428 -0.360670
0.977403 0.113708 0.185605
0.983297 0.158983 0.118729
0.981639 -0.028086 0.409980
0.979065 -0.015232 0.460050
0.979667 -0.079072 0.148033
0.980914 -0.111322 -0.446580
0.994727 0.125002 -0.084578
0.986186 -0.055591 -0.355128
0.988603 -0.080923 0.470521
0.994281 -0.057213 0.520954
0.992506 0.054566 0.209718
0.989849 -0.133008 -0.438356
0.989751 -0.077405 -0.085841
0.989812 -0.147228 -0.400293
0.993944 -0.148091 -0.372742
0.995883 -0.096791 -0.431102
0.992693 -0.091435 -0.384549
1.000350 -0.017846 0.432043
0.996756 -0.126953 -0.355408
0.997135 -0.106675 0.116399
0.996821 0.012525 -0.129669
0.998801 0.153364 0.023504
1.000020 -0.031875 0.518212
1.001360 0.144906 0.147210
1.000700 0.147203 -0.048370
1.000070 -0.017642 0.498332
1.003550 -0.114911 0.054202
1.002810 -0.059533 -0.107465
1.017930 0.081508 -0.114484
1.010350 -0.092372 -0.052233
1.013930 -0.030532 -0.124677
1.014570 -0.026996 0.213932
1.016370 0.148637 0.045126
1.026010 -0.118807 -0.436236
1.018060 -0.068820 -0.344465
1.023820 -0.058884 0.182391
1.020460 -0.105208 0.021223
1.023950 -0.028728 0.445039
1.024190 -0.063135 0.466391
1.027830 -0.071616 0.157267
1.028890 0.139869 -0.034810
1.031440 -0.072630 -0.082866
1.033320 -0.023882 0.502656
1.032750 -0.066956 -0.426033
1.044790 0.072919 0.196427
1.035240 -0.103595 0.067892
1.038010 -0.032439 0.205139
1.044450 0.139219 0.116766
1.039950 -0.099717 -0.003657
1.041980 0.117035 -0.076232
1.042080 0.023598 -0.124605
1.046090 -0.090402 0.106672
1.046090 -0.065365 -0.394875
1.051750 0.014521 0.205288
1.053780 -0.100903 -0.437967
1.054950 -0.061196 0.492326
1.059560 -0.041127 0.510360
1.059820 -0.015053 0.456824
1.064010 -0.079674 -0.432691
1.064160 0.116990 0.031091
1.067160 -0.072933 -0.064248
1.068380 -0.110980 -0.394935
1.069830 -0.004869 -0.112504
1.073750 -0.045686 0.173997
1.073270 0.110486 0.142402
1.075380 -0.039833 0.444302
1.078830 -0.022235 0.187027
1.075850 -0.051589 0.457444
1.080360 0.057298 -0.102182
1.083380 -0.090102 -0.373052
1.082790 0.037380 0.196962
1.083520 0.100754 -0.023766
1.087910 -0.040920 -0.099089
1.087980 0.108893 0.073204
1.089330 -0.117579 0.016338
1.091570 -0.108742 -0.408891
1.092080 0.081332 0.172275
1.090480 0.099542 0.031240
1.091600 -0.103567 -0.428468
1.092630 0.073531 -0.090618
1.093160 -0.104924 0.102023
1.093280 -0.061330 -0.385512
1.102300 0.101222 0.140847
1.104230 -0.115829 0.058701
1.107510 -0.036408 0.501154
1.121010 0.095399 0.032228
1.111400 0.003134 0.488085
1.109560 -0.103815 -0.028334
1.117640 -0.016753 0.430210
1.120890 -0.010468 -0.117485
1.126560 -0.043577 -0.407075
1.121760 -0.006475 0.200268
1.129920 -0.093294 0.116822
1.133990 -0.000894 0.494172
1.124730 -0.049137 0.179325
1.125440 -0.104098 0.090022
1.137190 -0.071612 -0.079065
1.130620 -0.026760 0.428384
1.131700 -0.110873 0.004639
1.132200 0.084001 -0.065884
1.147820 -0.086482 -0.368390
1.145920 0.075029 0.183356
1.156230 -0.026175 0.495997
1.142630 0.017660 -0.117174
1.144230 0.025016 0.462194
1.150350 -0.046222 -0.420256
1.147920 0.022864 0.436008
1.150730 0.012113 0.424101
1.154920 -0.031161 -0.374383
1.156200 -0.044140 0.482976
1.155290 0.104997 0.109373
1.158080 0.098204 0.003204
1.160030 -0.061859 -0.424279
1.175190 -0.083094 -0.412980
1.169280 0.093163 0.031424
1.169380 -0.008902 0.195500
1.178440 0.042167 -0.101585
1.175830 -0.019351 -0.397066
1.174660 0.095718 -0.036736
1.178770 -0.002606 0.406073
1.176790 0.106664 0.071305
1.178660 -0.045242 0.451898
1.177870 0.027096 0.481442
1.185830 -0.059482 -0.071146
1.191570 0.074336 -0.077428
1.197320 0.000679 0.187830
1.190840 -0.092424 0.117294
1.191160 -0.033260 -0.344328
1.191290 -0.052056 0.158220
1.196300 0.007990 -0.104520
1.193480 0.096443 0.141934
1.193600 -0.115334 0.029576
1.204380 -0.085911 -0.388498
1.208030 -0.021069 -0.411366
1.195560 -0.110163 0.088634
1.197480 0.075602 0.167035
1.199370 0.106433 0.121869
1.200030 -0.034036 -0.091026
1.209320 -0.038381 0.423548
1.201340 0.051171 0.427093
1.209550 0.020871 0.483083
1.208110 0.046967 0.183755
1.224420 -0.043195 0.446411
1.218640 -0.111364 -0.026494
1.214880 -0.022419 0.404083
1.216020 -0.048765 -0.335451
1.217160 -0.068834 -0.411185
1.220120 0.003099 -0.351329
1.220020 0.033559 -0.101824
1.236390 -0.021570 0.473670
1.241580 -0.019427 -0.409694
1.241560 -0.120024 0.096969
1.242860 -0.000263 -0.400463
1.234830 0.051913 0.457093
1.239980 0.034270 0.392401
1.244810 -0.009640 -0.327243
1.247490 0.103464 -0.053815
1.243410 -0.078205 -0.385798
1.244780 -0.125256 0.008408
1.251240 0.111789 0.001075
1.256190 -0.092675 -0.064140
1.254980 0.103995 0.030788
1.257980 -0.030616 0.454700
1.257570 -0.063701 -0.335919
1.261570 0.062622 0.407852
1.260750 -0.079444 0.160026
1.272270 0.014584 0.472003
1.268550 0.022266 0.377009
1.267840 0.074159 0.183370
1.269270 0.024855 -0.364262
1.277150 0.118075 0.128818
1.276340 0.002062 -0.116022
1.283360 0.023337 -0.336191
1.281560 0.000031 0.381218
1.281070 -0.125902 0.078209
1.290020 -0.029404 0.434021
1.290990 0.128066 0.098512
1.298650 -0.025198 0.396626
1.295330 -0.045193 -0.105380
1.292680 0.013377 0.347249
1.296230 0.054738 0.376648
1.302910 -0.111444 0.129754
1.299770 0.001390 -0.301462
1.309670 0.104046 0.166034
1.300700 0.062361 0.439258
1.304500 0.041337 0.206827
1.305990 -0.028093 -0.393935
1.302270 -0.043724 0.190076
1.305960 0.029504 0.456597
1.310150 0.011875 -0.386527
1.312930 -0.086234 -0.082058
1.318740 0.122545 -0.031113
1.315410 0.130235 0.077127
1.321900 -0.054310 -0.368391
1.327780 0.132516 0.092653
1.316770 -0.126414 -0.034520
1.317960 -0.124229 0.091664
1.322550 -0.043158 -0.306803
1.324150 -0.020551 0.372093
1.324920 -0.015248 -0.261030
1.326860 0.124750 -0.013697
1.327920 -0.068726 0.182696
1.334620 -0.053586 -0.321505
1.333720 0.027075 -0.313977
1.341680 0.027790 -0.351750
1.335860 0.115808 0.148709
1.337350 -0.024418 0.335198
1.337940 -0.133093 0.010533
1.338110 -0.055835 -0.105046
1.344610 -0.003071 0.414828
1.340430 -0.101813 -0.087018
1.340590 0.022883 0.215784
1.354470 0.060691 0.386726
1.341680 -0.103015 0.173796
1.343680 -0.007799 0.297402
1.348600 -0.015724 0.394458
1.350290 0.035957 -0.137865
1.347420 -0.132362 0.091293
1.347470 0.056597 0.324529
1.363170 -0.019726 0.197668
1.351960 0.026136 0.424913
1.354090 -0.123745 -0.077125
1.358220 0.030849 -0.283397
1.357490 0.002419 -0.365292
1.375280 -0.029144 -0.213544
1.362510 -0.044914 -0.325476
1.359120 0.121967 0.038743
1.361770 -0.128787 0.137358
1.365730 0.047181 0.401154
1.367620 0.073530 -0.118218
1.368840 -0.004071 -0.222631
1.384780 0.107302 -0.050020
1.374920 -0.121518 0.042346
1.374940 0.090673 -0.091536
1.371580 -0.049846 -0.242739
1.373190 0.065184 0.221331
1.380780 0.047182 0.270768
1.381240 0.034276 -0.300468
1.384030 0.014921 -0.145194
1.383550 -0.031147 0.310890
1.383060 0.012996 0.263657
1.386780 -0.099120 0.184963
1.388050 0.084010 0.214672
1.396600 -0.050855 -0.247526
1.392980 -0.131337 -0.043181
1.392320 -0.126123 0.130053
1.390440 0.021159 -0.201095
1.400300 0.119845 0.003566
1.394780 0.033685 -0.210465
1.391780 -0.004936 0.383314
1.399660 0.066801 -0.139440
1.394920 0.043914 -0.263074
1.395240 -0.058312 0.206688
1.403230 0.121525 0.115637
1.401220 0.029153 -0.302522
1.403160 0.125599 0.062874
1.399370 -0.029257 0.258362
1.403910 0.005119 0.216083
1.407810 0.004672 -0.175171
1.411790 -0.025396 0.334063
1.413690 -0.030026 -0.303448
1.414360 -0.042182 -0.276500
1.412040 0.067392 0.286355
1.412780 0.092472 -0.102771
1.414970 -0.001253 -0.316486
1.415720 0.061596 0.257417
1.419330 0.052957 0.243688
1.417980 0.104289 0.190715
1.423090 0.050868 -0.157556
1.424260 -0.047993 -0.180055
1.423810 -0.022284 0.208860
1.428520 0.019652 0.363862
1.429770 -0.017118 -0.125318
1.436680 -0.112249 0.053364
1.435850 -0.093993 -0.091446
1.437070 -0.046073 -0.133399
1.437800 -0.034583 -0.142574
1.440340 -0.004830 -0.295927
1.441260 -0.047747 0.229348
1.443520 -0.064592 -0.128553
1.444730 -0.062982 0.208107
1.443230 0.052014 -0.193639
1.445790 -0.011641 0.333854
1.452150 0.029756 -0.265880
1.451690 -0.107422 -0.029630
1.457360 -0.045497 0.285308
1.454540 -0.054819 -0.189403
1.454760 0.107827 -0.053378
1.456960 -0.034519 -0.254013
1.460920 0.077626 0.231359
1.459770 -0.068274 -0.120912
1.467370 -0.108358 0.015433
1.470660 0.051786 0.292862
1.465290 -0.106119 0.072547
1.467230 0.111918 0.069094
1.471410 0.113623 0.126737
1.469770 -0.056819 0.240692
1.478070 0.025127 0.311070
1.474000 0.055171 -0.181899
1.475880 -0.065008 0.179444
1.485190 -0.057833 -0.204694
1.481130 0.012263 -0.244428
1.486320 -0.017530 -0.244592
1.486970 0.075425 -0.133228
1.506800 0.088517 0.032793
1.493820 -0.065763 -0.096727
1.508780 0.097772 -0.039297
1.501250 -0.084038 0.097951
1.497550 -0.041013 0.280123
1.505960 -0.010878 0.296488
1.502530 0.084189 0.198636
1.507820 0.026452 -0.209501
1.508580 -0.066683 -0.153949
1.510550 -0.061243 0.142886
1.511860 0.056671 0.237175
1.523620 -0.048971 0.248034
1.519760 -0.076193 0.043276
1.522310 0.099789 0.105619
1.529910 0.085297 -0.071846
1.526470 0.064784 -0.128496
1.534150 -0.035725 -0.193054
1.532470 -0.066219 0.121468
1.531910 -0.074764 -0.022734
1.532820 -0.062586 0.098197
1.535870 -0.071665 0.014581
1.537390 -0.047506 -0.078783
1.545590 0.082103 -0.041513
1.542400 -0.052631 0.204920
1.546120 -0.060692 -0.118419
1.546400 0.002981 -0.184076
1.550370 -0.036959 0.232027
1.547990 -0.005515 0.248998
1.551670 -0.030522 0.164176
1.552010 -0.055145 -0.143792
1.553320 0.049549 0.191503
1.554510 0.050213 -0.117450
1.555780 -0.023227 -0.170030
1.555690 -0.022926 -0.040975
1.560230 -0.033027 -0.086577
1.559950 -0.014215 0.117073
1.559250 0.072663 0.130442
1.560450 0.069689 0.053655
1.566100 0.010824 -0.137568
1.566840 0.064725 -0.053185
1.571620 -0.053074 0.093577
1.577430 0.013613 0.179118
1.575100 -0.000376 -0.121345
1.582150 -0.065279 -0.002944
1.584470 0.023061 0.143285
1.584010 -0.017242 0.104928
1.588520 -0.028064 -0.020420
1.587920 0.045226 0.027093
1.608120 -0.102504 0.051643
1.607150 0.011524 -0.021415
1.612650 -0.094738 0.020050
1.617680 -0.072307 0.084623
1.619230 0.012249 0.083094
1.625330 -0.140590 0.052214
1.624740 0.018902 0.010048
1.632810 -0.120064 0.005159
1.636340 -0.062744 -0.008267
1.642380 -0.039480 -0.016412
1.635020 0.022563 0.053792
1.647300 -0.096920 -0.012838
1.648290 -0.127001 0.086973
1.650640 0.003277 -0.000787
1.656830 -0.058627 0.102936
1.660000 -0.101021 0.105547
1.664520 -0.140353 0.011524
1.682120 -0.015554 0.109209
1.683130 -0.161885 0.044016
1.695410 -0.050499 0.127830
1.696480 0.042858 0.029484
1.697840 -0.172812 0.035703
1.701920 -0.145681 0.066780
1.699900 -0.136719 0.003656
1.706520 0.044829 0.067099
1.709540 -0.125609 0.107255
1.710480 -0.063068 -0.025177
1.713690 -0.093855 -0.025457
1.714680 -0.018793 -0.026536
1.715860 0.017457 0.106393
1.714390 0.020135 -0.010996
1.724150 -0.083520 0.124074
1.735220 -0.036027 -0.033197
1.736000 0.006698 0.118522
1.740720 -0.114195 -0.015368
1.738720 0.056622 0.025415
1.741310 0.047384 0.079915
1.740510 -0.040107 0.128709
1.745180 -0.151116 0.047615
1.746350 -0.133915 0.107160
1.755780 -0.141813 0.002442
1.758230 0.008721 -0.020357
1.766370 -0.155783 0.063168
1.775690 -0.032865 0.128503
1.786120 -0.105455 0.120231
1.788970 -0.081208 -0.022904
1.791690 0.022839 0.090247
1.800190 -0.018151 -0.020390
1.800200 -0.113926 -0.005761
1.805250 -0.140739 0.038577
1.806650 -0.133610 0.083788
1.810080 0.017882 0.009303
1.817420 0.018515 0.064976
1.826400 -0.041430 0.105133
1.832170 -0.112599 0.056500
1.834070 -0.015415 0.000618
1.841740 -0.083670 0.033888
1.842240 -0.018086 0.073784
1.842810 -0.081967 0.066261
0.810528 -0.002025 0.032812
3 373 345 394
3 394 398 418
3 487 509 492
3 522 512 495
3 353 373 354
3 347 356 335
3 345 355 383
3 383 398 345
3 415 453 472
3 472 497 503
3 440 503 485
3 467 448 421
3 448 457 430
3 398 421 430
3 345 373 351
3 398 383 392
3 392 347 374
3 351 353 327
3 394 345 398
3 353 351 373
3 351 327 345
3 490 526 486
3 529 526 490
3 600 565 604
3 617 604 594
3 623 617 594
3 617 623 641
3 617 641 628
3 345 327 355
3 401 418 415
3 453 418 445
3 453 445 452
3 452 445 473
3 356 355 335
3 418 398 445
3 394 418 401
3 453 486 472
3 472 486 497
3 497 526 533
3 564 570 539
3 564 616 598
3 564 598 586
3 539 570 522
3 492 490 473
3 430 445 398
3 509 512 543
3 394 401 373
3 373 401 354
3 453 415 418
3 355 327 322
3 453 452 486
3 430 421 448
3 473 486 452
3 445 430 457
3 486 473 490
3 563 529 544
3 563 544 594
3 604 563 594
3 490 492 529
3 356 383 355
3 353 322 327
3 409 392 374
3 445 457 473
3 355 322 335
3 457 448 487
3 526 529 563
3 398 392 421
3 526 497 486
3 440 415 472
3 485 467 440
3 473 457 492
3 492 457 487
3 383 356 347
3 358 374 339
3 383 347 392
3 467 421 440
3 509 529 492
3 354 401 358
3 415 440 401
3 354 358 337
3 322 353 337
3 529 509 544
3 591 562 588
3 586 621 588
3 608 586 598
3 643 627 658
3 680 681 657
3 672 685 667
3 648 649 622
3 674 654 671
3 649 637 611
3 649 611 622
3 337 353 354
3 544 543 577
3 562 577 543
3 562 591 577
3 621 623 591
3 623 651 641
3 409 401 440
3 401 409 374
3 440 421 409
3 401 374 358
3 565 533 526
3 565 526 604
3 563 604 526
3 440 472 503
3 497 533 542
3 533 565 542
3 339 337 358
3 374 347 339
3 448 467 487
3 601 583 565
3 467 485 495
3 537 495 485
3 503 497 542
3 509 487 512
3 467 495 487
3 503 542 537
3 574 564 537
3 598 578 608
3 571 603 573
3 587 571 540
3 470 523 510
3 434 406 403
3 403 432 434
3 391 420 403
3 408 368 389
3 411 389 399
3 380 361 372
3 387 372 341
3 309 302 284
3 281 302 305
3 600 604 617
3 487 495 512
3 543 544 509
3 485 503 537
3 577 594 544
3 591 594 577
3 543 512 522
3 522 495 537
3 565 600 601
3 542 565 537
3 522 537 539
3 600 617 628
3 601 600 628
3 583 601 626
3 626 601 640
3 623 621 638
3 588 621 591
3 17 38 21
3 30 17 14
3 22 20 19
3 29 19 16
3 91 102 76
3 81 80 72
3 67 94 82
3 8 2 21
3 17 2 14
3 20 2 12
3 40 53 55
3 38 17 30
3 53 29 56
3 62 81 72
3 543 522 562
3 562 522 570
3 30 25 40
3 14 25 30
3 564 609 616
3 594 591 623
3 621 608 638
3 36 38 44
3 38 30 44
3 537 565 583
3 40 22 53
3 36 44 31
3 537 583 574
3 537 564 539
3 641 642 628
3 642 641 651
3 621 586 608
3 40 25 22
3 628 640 601
3 609 615 616
3 616 615 612
3 21 38 36
3 570 588 562
3 588 570 586
3 574 626 609
3 44 30 55
3 642 669 660
3 676 673 660
3 673 668 652
3 660 640 628
3 36 31 15
3 30 40 55
3 660 628 642
3 53 56 72
3 55 64 51
3 643 659 638
3 638 651 623
3 44 55 51
3 44 51 31
3 20 14 2
3 564 574 609
3 22 29 53
3 29 60 56
3 60 62 56
3 615 609 626
3 614 630 624
3 662 630 665
3 652 645 630
3 640 660 673
3 651 669 642
3 660 669 676
3 31 51 48
3 72 67 53
3 29 50 60
3 55 53 67
3 72 56 62
3 699 694 700
3 705 701 690
3 716 727 712
3 722 712 727
3 64 67 68
3 94 123 96
3 94 107 125
3 125 107 121
3 107 102 121
3 102 107 80
3 121 131 134
3 131 121 102
3 148 142 125
3 82 86 68
3 136 151 131
3 131 151 153
3 148 134 161
3 183 178 160
3 241 234 212
3 241 242 266
3 270 246 751
3 80 67 72
3 102 80 81
3 81 76 102
3 116 113 98
3 94 125 129
3 94 129 123
3 94 80 107
3 86 82 96
3 86 96 93
3 67 80 94
3 125 121 134
3 67 64 55
3 62 60 71
3 134 148 125
3 142 172 157
3 145 141 156
3 148 161 164
3 148 164 142
3 142 164 172
3 172 164 178
3 175 176 154
3 175 170 185
3 215 204 175
3 211 196 216
3 196 186 207
3 195 207 186
3 16 50 29
3 626 574 583
3 129 125 142
3 129 142 123
3 154 145 156
3 31 48 12
3 31 12 8
3 626 640 652
3 652 615 626
3 676 686 673
3 686 676 682
3 686 678 673
3 160 161 134
3 131 160 134
3 51 64 48
3 123 157 139
3 669 651 659
3 659 651 638
3 669 659 682
3 112 96 123
3 67 82 68
3 71 81 62
3 39 50 16
3 8 12 2
3 54 48 64
3 142 157 123
3 123 139 141
3 94 96 82
3 100 131 102
3 81 71 76
3 214 230 210
3 248 251 233
3 251 262 240
3 240 262 253
3 293 300 287
3 290 323 298
3 298 267 290
3 267 259 290
3 292 287 300
3 230 256 268
3 207 210 231
3 233 231 248
3 214 193 232
3 256 230 214
3 256 214 232
3 136 131 108
3 673 652 640
3 20 12 48
3 255 238 217
3 234 213 212
3 213 187 212
3 64 68 54
3 178 183 193
3 183 160 153
3 93 98 84
3 88 84 98
3 84 86 93
3 186 185 168
3 210 230 244
3 255 277 232
3 295 286 272
3 306 295 346
3 86 84 70
3 99 88 98
3 161 160 178
3 157 172 168
3 172 195 186
3 195 172 203
3 256 232 277
3 367 307 370
3 278 367 289
3 244 230 268
3 268 256 282
3 282 256 277
3 100 102 91
3 203 214 210
3 203 210 195
3 112 93 96
3 20 48 45
3 54 68 70
3 46 45 39
3 178 164 161
3 71 60 50
3 210 244 231
3 244 268 278
3 178 203 172
3 268 282 307
3 84 88 66
3 233 251 216
3 214 203 178
3 214 178 193
3 682 676 669
3 76 71 66
3 48 54 45
3 268 307 278
3 615 652 630
3 587 595 644
3 644 595 634
3 629 632 650
3 507 504 520
3 560 524 528
3 506 493 480
3 71 50 39
3 71 39 66
3 39 16 46
3 210 207 195
3 196 207 216
3 216 207 233
3 141 145 126
3 68 86 70
3 238 232 217
3 232 238 255
3 153 160 131
3 172 186 168
3 638 608 643
3 603 627 643
3 603 643 590
3 590 643 608
3 108 100 91
3 289 296 248
3 217 187 213
3 194 187 181
3 45 54 70
3 675 682 659
3 255 280 277
3 244 278 248
3 346 368 306
3 232 193 217
3 108 131 100
3 186 196 185
3 231 244 248
3 307 282 370
3 370 282 360
3 282 308 360
3 296 329 293
3 308 306 336
3 308 282 277
3 70 84 66
3 45 70 39
3 39 70 66
3 578 598 612
3 578 556 608
3 477 511 518
3 469 477 429
3 277 280 308
3 99 76 88
3 76 99 91
3 535 561 584
3 631 624 662
3 665 645 668
3 464 496 569
3 458 451 499
3 387 399 372
3 372 399 380
3 308 280 306
3 45 46 10
3 108 99 122
3 99 108 91
3 16 10 46
3 248 278 289
3 518 578 612
3 264 280 255
3 360 308 336
3 306 280 286
3 76 66 88
3 556 590 608
3 556 569 590
3 464 569 556
3 417 451 411
3 399 417 411
3 166 183 153
3 603 590 573
3 156 168 170
3 170 168 185
3 278 307 367
3 548 612 615
3 139 157 168
3 630 645 665
3 615 619 548
3 207 231 233
3 645 652 668
3 619 630 614
3 136 108 122
3 122 113 128
3 289 367 352
3 548 619 550
3 614 624 584
3 370 360 390
3 370 390 402
3 682 675 686
3 255 234 264
3 619 615 630
3 556 578 511
3 518 511 578
3 168 156 139
3 139 156 141
3 145 154 146
3 668 673 678
3 665 668 678
3 367 402 412
3 402 408 443
3 443 408 419
3 500 463 477
3 469 488 477
3 153 151 166
3 166 154 181
3 154 166 146
3 99 98 113
3 98 93 116
3 360 336 390
3 390 336 368
3 151 150 166
3 141 112 123
3 112 141 126
3 408 390 368
3 122 99 113
3 336 306 368
3 500 518 530
3 500 530 535
3 553 567 581
3 521 553 541
3 505 466 521
3 438 471 435
3 423 435 420
3 423 420 391
3 678 686 677
3 93 112 116
3 402 429 412
3 193 187 217
3 264 286 280
3 659 658 675
3 443 429 402
3 469 429 443
3 477 518 500
3 491 498 514
3 425 451 417
3 217 213 255
3 338 352 369
3 352 381 369
3 518 548 530
3 390 408 402
3 255 213 234
3 569 573 590
3 296 289 329
3 370 402 367
3 518 612 548
3 412 429 436
3 412 436 400
3 456 464 488
3 187 193 183
3 286 264 272
3 658 659 643
3 469 443 456
3 488 511 477
3 183 166 181
3 488 556 511
3 264 234 272
3 211 240 223
3 436 429 477
3 436 477 463
3 443 464 456
3 464 443 419
3 150 151 136
3 150 136 122
3 150 122 128
3 550 619 561
3 116 112 126
3 469 456 488
3 439 458 464
3 316 295 305
3 305 288 281
3 240 253 223
3 196 211 185
3 185 211 175
3 619 614 561
3 216 251 211
3 251 240 211
3 367 412 381
3 686 675 693
3 113 116 128
3 683 658 666
3 675 658 683
3 691 693 683
3 693 690 677
3 296 265 248
3 150 128 146
3 234 241 272
3 289 352 329
3 550 530 548
3 488 464 556
3 573 569 531
3 571 573 531
3 352 367 381
3 146 128 126
3 646 627 644
3 627 646 658
3 329 352 324
3 329 324 293
3 126 145 146
3 295 306 286
3 251 248 265
3 400 381 412
3 166 150 146
3 170 154 156
3 368 346 389
3 389 364 380
3 364 361 380
3 116 126 128
3 464 419 439
3 531 569 496
3 675 683 693
3 204 176 175
3 176 204 197
3 197 194 176
3 181 187 183
3 683 666 691
3 346 364 389
3 281 270 751
3 246 225 751
3 265 262 251
3 408 389 419
3 419 389 411
3 316 325 295
3 236 225 218
3 236 204 215
3 242 270 266
3 293 262 265
3 293 253 262
3 324 338 328
3 328 338 332
3 332 366 310
3 212 187 194
3 241 266 272
3 272 266 288
3 288 266 279
3 540 531 499
3 454 501 499
3 454 425 460
3 413 425 417
3 451 454 499
3 272 288 295
3 603 571 627
3 666 658 646
3 666 646 644
3 295 325 346
3 364 346 325
3 369 388 376
3 693 677 686
3 225 212 194
3 211 223 215
3 154 170 175
3 439 419 411
3 464 458 496
3 677 662 678
3 181 154 176
3 181 176 194
3 571 531 540
3 584 561 614
3 483 500 535
3 498 483 535
3 436 427 400
3 427 436 463
3 530 550 535
3 212 225 242
3 212 242 241
3 364 325 361
3 458 439 451
3 296 293 265
3 338 324 352
3 665 678 662
3 500 483 463
3 305 295 288
3 381 388 369
3 388 381 400
3 411 451 439
3 535 550 561
3 423 385 414
3 458 499 496
3 631 584 624
3 388 400 427
3 385 366 376
3 215 175 211
3 389 380 399
3 724 718 720
3 718 719 703
3 733 724 720
3 701 720 700
3 279 266 270
3 627 587 644
3 571 587 627
3 624 630 662
3 215 223 236
3 194 197 218
3 531 496 499
3 572 536 547
3 656 647 631
3 718 700 720
3 197 204 218
3 427 463 483
3 687 690 700
3 664 677 687
3 724 739 737
3 724 733 739
3 719 715 703
3 732 740 741
3 746 741 740
3 746 740 748
3 700 703 699
3 737 740 726
3 726 740 732
3 743 733 727
3 732 741 730
3 723 736 729
3 737 739 747
3 738 725 735
3 702 709 721
3 325 316 361
3 361 309 334
3 697 699 708
3 704 714 717
3 734 731 730
3 731 734 742
3 731 742 736
3 737 719 718
3 719 737 726
3 751 258 287
3 718 724 737
3 698 693 691
3 218 225 194
3 417 399 413
3 540 499 501
3 535 584 547
3 719 726 715
3 324 300 293
3 720 705 722
3 703 708 699
3 718 703 700
3 664 662 677
3 677 690 687
3 664 687 694
3 705 712 722
3 388 427 414
3 705 690 693
3 705 693 698
3 720 722 733
3 242 246 270
3 666 644 691
3 691 644 681
3 715 708 703
3 705 720 701
3 715 713 708
3 708 713 710
3 697 710 704
3 726 732 715
3 732 730 715
3 715 730 713
3 740 737 748
3 747 748 737
3 332 338 369
3 385 376 388
3 701 700 690
3 687 700 694
3 246 242 225
3 253 293 287
3 491 471 498
3 223 253 258
3 739 743 747
3 743 739 733
3 288 279 281
3 281 279 270
3 540 501 566
3 547 584 572
3 535 547 498
3 332 369 376
3 584 631 572
3 692 697 704
3 692 704 695
3 733 722 727
3 253 287 258
3 438 427 483
3 631 613 572
3 438 414 427
3 414 438 423
3 236 218 204
3 540 566 587
3 328 332 310
3 328 300 324
3 662 664 631
3 236 223 258
3 743 738 744
3 309 361 316
3 372 334 341
3 236 751 225
3 316 305 309
3 388 414 385
3 483 471 438
3 471 483 498
3 366 332 376
3 744 749 747
3 501 454 460
3 510 476 470
3 706 689 684
3 748 750 746
3 705 698 712
3 501 460 516
3 292 300 310
3 744 747 743
3 633 613 631
3 300 328 310
3 751 236 258
3 743 727 738
3 730 741 734
3 710 697 708
3 694 697 692
3 664 656 631
3 750 748 749
3 425 454 451
3 595 635 634
3 717 731 723
3 399 387 413
3 694 699 697
3 746 742 741
3 287 292 269
3 269 292 290
3 751 287 269
3 702 691 696
3 302 281 284
3 320 297 312
3 305 302 309
3 710 714 704
3 593 635 595
3 593 545 607
3 566 595 587
3 566 501 532
3 593 534 545
3 595 566 534
3 698 702 712
3 656 664 684
3 516 460 450
3 516 450 476
3 290 259 269
3 219 259 267
3 219 235 201
3 201 243 192
3 206 208 227
3 696 689 709
3 710 713 714
3 536 572 557
3 694 692 664
3 695 684 692
3 696 691 680
3 498 547 514
3 702 698 691
3 534 566 532
3 536 557 567
3 727 728 738
3 326 310 366
3 371 313 375
3 406 393 386
3 681 634 657
3 536 514 547
3 344 359 379
3 359 326 366
3 438 435 423
3 681 680 691
3 613 633 585
3 567 585 581
3 592 581 620
3 559 597 551
3 551 597 606
3 605 606 576
3 557 572 613
3 592 541 581
3 585 567 613
3 284 281 271
3 274 247 226
3 284 271 275
3 254 239 275
3 221 237 205
3 237 249 198
3 510 516 476
3 527 559 551
3 523 508 575
3 575 508 525
3 714 713 730
3 730 731 714
3 385 391 359
3 425 450 460
3 404 387 363
3 416 363 340
3 310 326 292
3 257 237 221
3 271 257 221
3 221 228 271
3 221 205 202
3 165 205 163
3 162 188 182
3 199 188 162
3 450 422 476
3 404 422 413
3 410 441 416
3 664 692 684
3 269 245 257
3 254 271 228
3 716 702 721
3 728 727 716
3 334 372 361
3 219 249 259
3 201 235 243
3 189 220 200
3 190 177 206
3 208 179 224
3 179 192 224
3 245 249 237
3 716 712 702
3 644 634 681
3 534 532 516
3 510 523 545
3 741 742 734
3 257 245 237
3 475 441 481
3 475 481 508
3 508 481 525
3 631 647 633
3 259 245 269
3 259 249 245
3 491 514 521
3 290 292 326
3 593 595 534
3 474 471 491
3 746 750 742
3 290 326 323
3 491 466 474
3 471 474 435
3 663 656 684
3 521 536 567
3 273 298 291
3 252 299 285
3 285 301 263
3 226 227 263
3 501 516 532
3 334 309 341
3 385 359 366
3 684 689 679
3 425 413 450
3 534 516 510
3 639 585 653
3 647 663 661
3 385 423 391
3 738 745 749
3 702 696 709
3 731 717 714
3 514 536 521
3 250 224 243
3 567 557 613
3 723 731 736
3 432 435 474
3 695 706 684
3 689 706 709
3 633 647 653
3 749 744 738
3 728 716 721
3 229 222 260
3 228 239 254
3 525 527 551
3 205 237 198
3 205 174 163
3 254 275 271
3 695 704 707
3 742 750 745
3 745 736 742
3 745 738 735
3 663 647 656
3 239 209 229
3 220 229 200
3 657 634 635
3 420 435 432
3 199 191 219
3 199 219 201
3 688 680 674
3 688 674 685
3 680 650 674
3 413 387 404
3 422 404 416
3 384 416 340
3 432 474 466
3 298 323 314
3 201 188 199
3 689 696 688
3 725 728 721
3 267 298 273
3 291 283 273
3 283 313 299
3 285 311 301
3 285 299 311
3 299 313 371
3 249 219 198
3 684 679 663
3 661 663 679
3 466 491 521
3 704 717 707
3 198 219 191
3 275 239 260
3 297 284 275
3 275 260 297
3 721 709 725
3 239 228 209
3 581 585 620
3 559 610 597
3 717 723 707
3 736 745 735
3 174 198 191
3 162 174 191
3 725 738 728
3 209 202 180
3 115 119 138
3 209 221 202
3 221 209 228
3 309 284 297
3 359 344 326
3 709 706 711
3 198 174 205
3 205 180 202
3 120 143 119
3 83 105 89
3 105 83 110
3 77 73 101
3 103 115 106
3 387 341 363
3 375 344 379
3 707 706 695
3 422 450 413
3 653 647 661
3 653 661 672
3 323 344 314
3 707 723 706
3 169 184 180
3 173 184 171
3 140 155 147
3 184 169 171
3 200 180 184
3 505 468 466
3 468 505 527
3 723 729 711
3 222 261 276
3 711 706 723
3 180 205 165
3 523 470 475
3 406 434 431
3 219 267 235
3 688 679 689
3 298 314 291
3 163 174 152
3 158 182 179
3 130 132 140
3 104 90 117
3 104 114 85
3 97 85 114
3 97 95 87
3 87 95 73
3 422 416 441
3 466 468 432
3 534 510 545
3 309 320 341
3 320 363 341
3 735 729 736
3 729 735 725
3 709 711 729
3 209 180 200
3 725 709 729
3 163 152 143
3 143 137 169
3 165 143 169
3 309 297 320
3 553 521 567
3 162 191 199
3 165 163 143
3 696 680 688
3 521 541 505
3 152 174 162
3 152 138 119
3 633 653 585
3 229 209 200
3 359 391 379
3 222 276 260
3 260 239 229
3 326 344 323
3 143 120 118
3 661 679 672
3 110 106 127
3 83 92 110
3 152 119 143
3 124 118 114
3 117 124 104
3 680 657 650
3 541 592 559
3 250 283 252
3 188 192 182
3 182 192 179
3 120 119 109
3 115 101 119
3 137 143 118
3 137 124 149
3 468 434 432
3 403 379 391
3 639 653 672
3 672 679 685
3 169 180 165
3 593 607 635
3 639 672 667
3 109 118 120
3 470 441 475
3 657 635 650
3 393 384 350
3 476 441 470
3 441 476 422
3 297 260 276
3 235 267 273
3 607 629 650
3 101 109 119
3 375 314 344
3 109 101 95
3 620 585 639
3 363 320 340
3 403 420 432
3 138 152 162
3 229 220 222
3 505 541 527
3 386 403 406
3 169 149 171
3 118 124 137
3 95 97 109
3 109 114 118
3 114 109 97
3 404 363 416
3 162 182 158
3 410 393 406
3 688 685 679
3 137 149 169
3 465 525 481
3 523 582 545
3 629 605 602
3 188 201 192
3 468 455 434
3 468 465 455
3 47 52 37
3 69 87 73
3 28 6 3
3 43 28 41
3 5 27 4
3 27 5 42
3 73 59 69
3 32 61 47
3 28 3 4
3 13 3 24
3 4 41 28
3 73 95 101
3 73 77 74
3 87 85 97
3 508 523 475
3 41 27 59
3 124 114 104
3 235 273 243
3 379 403 375
3 375 403 386
3 101 115 103
3 171 159 173
3 149 159 171
3 159 133 147
3 320 312 340
3 468 527 465
3 85 87 69
3 581 541 553
3 243 224 192
3 434 455 431
3 27 42 59
3 65 26 49
3 162 158 138
3 138 158 135
3 455 465 481
3 65 59 42
3 527 525 465
3 41 73 43
3 200 184 189
3 190 189 167
3 73 41 59
3 74 43 73
3 41 4 27
3 410 416 384
3 607 545 582
3 607 582 629
3 283 291 313
3 406 431 410
3 575 582 523
3 312 297 276
3 208 224 227
3 189 184 173
3 59 65 69
3 158 144 135
3 222 220 261
3 607 650 635
3 384 340 350
3 85 69 65
3 85 65 79
3 291 314 313
3 541 559 527
3 42 23 26
3 243 273 250
3 313 314 375
3 101 103 77
3 92 106 110
3 144 177 155
3 340 312 350
3 301 311 371
3 311 299 371
3 23 5 1
3 23 42 5
3 13 1 3
3 37 52 57
3 37 24 18
3 57 78 75
3 49 63 65
3 250 273 283
3 375 386 371
3 441 410 481
3 226 247 189
3 674 650 654
3 654 637 671
3 312 276 303
3 115 138 106
3 393 410 384
3 43 74 61
3 481 410 455
3 582 575 606
3 625 655 648
3 431 455 410
3 74 57 61
3 74 77 78
3 74 78 57
3 610 559 592
3 596 618 625
3 43 61 32
3 350 312 303
3 104 85 90
3 149 124 133
3 149 133 159
3 65 42 26
3 386 393 371
3 65 63 79
3 79 63 75
3 158 179 177
3 620 639 636
3 610 592 620
3 103 92 77
3 685 674 671
3 685 671 670
3 301 393 350
3 220 189 247
3 667 655 639
3 220 247 261
3 124 117 133
3 147 133 140
3 132 127 144
3 177 179 208
3 32 28 43
3 685 670 667
3 667 670 655
3 554 596 546
3 546 599 555
3 549 555 589
3 560 549 589
3 560 589 568
3 568 611 632
3 632 629 602
3 103 106 92
3 575 525 551
3 0 24 3
3 11 35 37
3 18 0 11
3 618 610 620
3 173 159 167
3 167 159 147
3 85 79 90
3 11 0 9
3 6 28 32
3 620 636 618
3 177 144 158
3 34 47 35
3 206 177 208
3 629 582 605
3 32 34 7
3 138 135 106
3 301 371 393
3 173 167 189
3 274 226 263
3 261 274 276
3 303 276 274
3 32 7 6
3 133 117 130
3 133 130 140
3 32 47 34
3 636 639 655
3 117 111 130
3 299 252 283
3 77 92 83
3 575 551 606
3 1 26 23
3 26 1 13
3 47 61 52
3 106 135 127
3 226 189 206
3 206 227 226
3 303 294 350
3 274 261 247
3 90 79 89
3 90 111 117
3 618 596 610
3 155 177 190
3 61 57 52
3 77 83 78
3 294 303 274
3 111 105 130
3 105 111 89
3 7 34 9
3 250 252 224
3 224 252 227
3 618 636 625
3 189 190 206
3 155 167 147
3 350 294 301
3 75 78 83
3 190 167 155
3 79 75 89
3 90 89 111
3 252 285 263
3 13 49 26
3 49 58 63
3 135 144 127
3 605 582 606
3 650 632 654
3 263 301 294
3 57 75 58
3 83 89 75
3 110 127 132
3 110 132 105
3 263 294 274
3 57 24 37
3 24 57 58
3 58 49 13
3 227 252 263
3 132 155 140
3 625 599 579
3 599 622 589
3 589 611 568
3 599 589 555
3 517 555 515
3 506 502 528
3 144 155 132
3 654 632 637
3 35 9 34
3 596 625 579
3 63 58 75
3 24 58 13
3 130 105 132
3 35 47 37
3 606 580 576
3 670 648 655
3 596 579 546
3 519 513 507
3 576 558 605
3 605 558 602
3 655 625 636
3 649 670 671
3 11 9 35
3 670 649 648
3 11 37 33
3 554 576 580
3 625 648 599
3 554 546 513
3 649 671 637
3 558 576 519
3 18 33 37
3 579 599 546
3 632 602 552
3 0 18 24
3 576 554 519
3 538 546 555
3 611 637 632
3 599 648 622
3 552 568 632
3 520 602 558
3 520 552 602
3 554 513 519
3 558 519 520
3 519 507 520
3 538 513 546
3 622 611 589
3 513 538 517
3 513 459 494
3 494 447 504
3 444 493 479
3 428 446 447
3 428 447 459
3 437 407 428
3 397 446 428
3 382 396 426
3 365 357 343
3 343 321 333
3 304 318 315
3 317 318 304
3 317 304 319
3 507 513 494
3 493 444 462
3 493 462 480
3 504 507 494
3 504 479 524
3 459 513 484
3 517 484 513
3 568 552 524
3 524 560 568
3 555 517 538
3 343 357 319
3 378 377 405
3 449 442 424
3 502 489 449
3 517 515 478
3 517 478 484
3 504 524 520
3 494 459 447
3 447 479 504
3 515 555 549
3 484 437 459
3 459 437 428
3 444 433 462
3 437 478 461
3 437 461 407
3 437 484 478
3 330 331 315
3 331 330 348
3 357 377 342
3 317 342 318
3 318 342 330
3 520 524 552
3 342 317 319
3 549 560 528
3 446 444 479
3 446 479 447
3 461 395 407
3 515 482 478
3 482 515 502
3 482 461 478
3 444 446 397
3 397 426 444
3 515 549 528
3 515 528 502
3 479 493 524
3 428 407 405
3 502 506 489
3 378 342 377
3 377 428 405
3 342 378 330
3 348 330 378
3 319 321 343
3 318 330 315
3 378 349 348
3 482 502 449
3 397 357 365
3 397 365 382
3 382 365 362
3 433 444 426
3 480 462 433
3 480 433 442
3 377 357 397
3 524 493 528
3 378 407 395
3 405 407 378
3 319 304 321
3 449 461 482
3 349 333 331
3 321 304 315
3 343 333 365
3 528 493 506
3 461 449 395
3 395 449 424
3 449 489 442
3 362 333 349
3 378 395 349
3 397 382 426
3 396 395 424
3 489 506 442
3 426 396 433
3 442 506 480
3 349 331 348
3 365 333 362
3 396 424 433
3 433 424 442
3 396 382 362
3 321 315 331
3 321 331 333
3 362 349 396
3 395 396 349
3 335 339 347
3 335 322 339
3 339 322 337
3 392 409 421
3 21 36 15
3 19 29 22
3 25 14 20
3 25 20 22
3 19 10 16
3 10 19 20
3 21 2 17
3 8 15 31
3 15 8 21
3 570 564 586
3 616 612 598
3 745 750 749
3 749 748 747
3 33 18 11
3 6 0 3
3 1 5 4
3 1 4 3
3 7 9 0
3 0 6 7
3 606 597 580
3 580 596 554
3 596 580 597
3 610 596 597
3 397 428 377
3 342 319 357
3 10 20 45
3 751 271 281
3 257 751 269
3 751 257 271
