ply
format ascii 1.0
element vertex 502
property float32 x
property float32 y
property float32 z
element face 1000
property list uint8 int32 vertex_indices
end_header
0.085211 0.324816 0.278766
0.110701 0.500691 0.303183
0.123807 0.359827 0.249513
0.104204 0.547467 0.279945
0.137911 0.553212 0.226036
0.126830 0.358621 0.217153
0.147666 0.491234 0.251405
0.122966 0.412418 0.159387
0.126614 0.369972 0.154562
0.150070 0.441310 0.179468
0.096554 0.581277 0.220512
0.130448 0.545229 0.167701
0.109668 0.530132 0.141532
0.107238 0.376108 0.135644
0.125292 0.413541 0.288589
0.104407 0.575555 0.185970
0.087235 0.422850 0.135796
0.142750 0.413474 0.218949
0.084091 0.535324 0.137652
0.080760 0.562006 0.157717
0.140395 0.492769 0.156914
0.107667 0.478457 0.128591
0.063145 0.438405 0.316399
0.064854 0.572658 0.256614
0.159524 0.450201 0.207892
0.139866 0.276149 0.168756
0.145130 0.254131 0.196703
0.228757 0.164062 0.198178
0.196293 0.312116 0.177122
0.237164 0.120261 0.051864
0.182408 -0.061158 0.108042
0.124646 0.100305 0.170709
0.114145 0.070291 0.150261
0.102639 0.221370 0.180848
0.247637 0.291133 0.100060
0.130924 0.183091 -0.040585
0.245319 0.189558 0.035924
0.241504 0.169617 0.158422
0.213984 0.321028 0.168167
0.298255 0.109559 0.125851
0.161150 0.351247 0.154225
0.205497 -0.171860 0.010359
0.215148 -0.206749 0.033556
0.206883 -0.150317 0.047411
0.205580 -0.077740 0.046726
0.172469 -0.299621 -0.053768
0.095814 -0.299692 -0.068899
0.103138 -0.182418 -0.093622
0.126235 -0.177629 -0.087292
0.226522 -0.344449 0.023033
0.176684 -0.339221 -0.044828
0.199511 -0.340163 -0.029937
0.083883 -0.087515 0.144226
0.201478 -0.199096 0.090196
0.182000 -0.207134 0.110829
0.091926 -0.315122 -0.037769
0.213401 -0.396113 0.081934
0.184598 -0.399805 0.103219
0.151031 -0.359341 0.112398
0.064392 -0.297994 0.117228
0.145547 -0.354782 -0.052993
0.111865 -0.343776 -0.039828
0.227580 -0.420151 0.043192
0.084042 -0.372654 0.061989
0.114183 -0.260951 0.116496
0.216125 0.061408 0.085443
0.184736 -0.465934 0.090027
0.151613 -0.493288 0.083012
0.103350 -0.492069 0.021075
0.212663 -0.463893 0.070960
0.105668 -0.415689 -0.040336
0.198854 -0.454903 -0.042785
0.212810 -0.492380 -0.025780
0.181710 -0.479488 -0.061672
0.162567 -0.476686 -0.067878
0.175561 -0.589908 -0.068724
0.226640 -0.634822 -0.034801
0.222070 -0.616493 -0.009948
0.119337 -0.632094 -0.046454
0.146953 -0.655977 0.030665
0.212569 -0.573134 0.023057
0.216977 -0.561448 -0.005444
0.212612 -0.551009 -0.030324
0.193640 -0.580782 0.045469
0.142500 -0.561668 -0.064950
0.112104 -0.581010 -0.010159
0.168867 -0.657030 0.044171
0.195141 -0.634974 0.041909
0.222920 -0.674581 -0.008392
0.134903 -0.692907 -0.048630
0.158834 -0.651371 -0.075116
0.174888 -0.679968 -0.088094
0.217849 -0.657186 -0.055797
0.235802 -0.763191 -0.035170
0.228049 -0.755522 -0.061884
0.125651 -0.826190 -0.039061
0.124887 -0.826296 -0.056908
0.157012 -0.750960 -0.095023
0.205272 -0.776315 0.015823
0.227764 -0.771398 -0.003360
0.137044 -0.903013 -0.049729
0.156542 -0.822453 -0.092939
0.217178 -0.870988 -0.056425
0.222451 -0.875161 -0.033422
0.192676 -0.916760 0.003457
0.215693 -0.875541 -0.006498
0.173196 -0.918669 0.004561
0.158580 -0.899878 -0.076885
0.065296 -0.330670 0.028864
0.104966 -0.436775 0.063968
0.113007 -0.561159 0.020993
0.123651 -0.617650 -0.005129
0.134426 -0.673815 -0.013486
0.135582 -0.830774 -0.016776
0.142560 -0.914194 -0.015985
0.157466 -0.740359 0.001310
0.178411 -0.723884 0.017949
0.197983 -0.713178 -0.089694
0.125436 -0.543503 0.050608
0.200078 0.095272 0.115299
0.220806 -0.320470 0.064645
0.108189 0.004499 -0.046248
0.365133 0.107679 0.124680
0.337225 0.117772 0.114331
0.218544 -0.299715 -0.002772
0.201690 0.198668 0.196246
0.223160 -0.278146 0.043930
0.086022 -0.321476 -0.023560
0.124446 -0.419948 0.089493
0.400941 0.045595 0.190480
0.303991 0.085960 0.134610
0.339353 0.109610 0.202909
0.270523 0.133259 0.190988
0.100119 0.264053 0.180934
0.302755 0.099659 0.199844
0.211219 0.223087 -0.001426
0.079943 -0.419503 0.003674
0.129236 -0.415443 -0.056680
0.174834 -0.785714 -0.100610
0.195958 -0.784771 -0.096525
0.214610 -0.750135 -0.082960
0.174357 -0.862759 -0.085478
0.206225 -0.868525 -0.071134
0.196135 -0.292625 0.098507
0.119403 -0.276701 0.105835
0.175968 -0.012709 0.108109
0.199468 0.002090 0.015169
0.071818 -0.258216 0.129184
0.123371 -0.352502 0.102350
0.113126 -0.541047 -0.033503
0.130324 -0.789234 -0.072550
0.193839 0.254490 0.189632
0.067939 -0.300077 -0.062117
0.386025 0.101380 0.167365
0.315476 -0.105303 0.253100
0.309059 -0.106292 0.242308
0.363694 -0.146030 0.209464
0.370797 -0.142028 0.221393
0.372014 -0.067055 0.151037
0.340723 -0.069901 0.202230
0.381998 -0.096173 0.247209
0.436091 -0.070447 0.192911
0.392479 -0.010333 0.128281
0.366623 -0.033898 0.159950
0.380650 -0.008904 0.207375
0.452166 -0.034363 0.157089
0.401098 -0.054081 0.136605
0.337726 0.008673 0.155693
0.380723 0.022072 0.205889
0.444057 -0.000205 0.168840
0.364335 0.019472 0.206378
0.419293 -0.027575 0.214802
0.077672 0.298409 0.036126
0.153277 -0.189908 0.120420
0.213976 0.325838 0.098731
0.265378 0.283967 0.167405
0.301471 0.218983 0.207230
0.260746 0.173223 0.217770
0.326097 0.207069 0.160787
0.265943 0.242845 0.210031
0.244694 0.237671 0.216353
0.245179 0.153451 0.175058
0.322719 0.179365 0.206642
0.279114 0.251940 0.196816
0.276849 -0.186012 0.316122
0.288987 -0.150881 0.238312
0.302465 -0.168478 0.234832
0.292169 -0.201242 0.274294
0.246709 -0.172405 0.289633
0.327392 -0.173865 0.265061
0.163495 -0.211802 0.307301
0.180571 -0.212109 0.334671
0.247943 -0.208422 0.272010
0.247749 -0.242590 0.324234
0.150871 -0.230559 0.313601
0.217184 -0.197865 0.283587
0.182055 -0.210666 0.272173
0.133761 -0.238351 0.351046
0.161416 -0.242293 0.347183
0.191427 -0.240781 0.367188
0.158308 -0.239506 0.268435
0.209336 -0.003709 0.076467
0.161160 0.020230 -0.031459
0.213028 0.080191 -0.004566
0.184072 0.104179 -0.031611
0.086114 0.023987 0.148190
0.113037 0.156487 0.184031
0.186901 0.339801 0.089502
0.188283 -0.109039 0.095838
0.145407 -0.073327 -0.038451
0.198005 0.259643 -0.000671
0.184454 0.313716 0.046738
0.150767 0.256139 -0.000136
0.284848 0.221560 0.117749
0.071447 -0.077649 -0.050897
0.071388 0.011076 -0.042561
0.069128 0.101625 0.157214
0.206470 -0.276973 -0.023276
0.185640 -0.173090 -0.028006
0.186602 -0.105759 -0.020871
0.170013 -0.128887 -0.041104
0.145050 -0.247522 -0.086068
0.160577 -0.198414 -0.074003
0.123132 -0.248922 -0.090870
0.035630 -0.272920 0.125765
0.056626 -0.156828 0.120544
0.150898 -0.141171 0.119750
0.060598 0.502228 0.314733
0.163216 -1.006847 -0.064973
0.190490 -1.011046 -0.045165
0.195541 -1.010694 -0.024196
0.192417 -1.015775 -0.004495
0.147763 -1.013144 -0.002971
0.150527 -1.005776 -0.064648
0.140611 -1.042547 -0.037980
0.167806 -1.124250 0.139454
0.178947 -1.148305 0.136758
0.201583 -1.132304 0.134517
0.169057 -1.018873 0.012570
0.153748 -1.066032 -0.067651
0.143186 -1.066098 0.014025
0.175383 -1.066513 0.036372
0.174435 -1.105679 0.103206
0.237823 -1.129043 0.077705
0.171699 -1.145441 0.093109
0.222081 -1.150175 0.083857
0.210491 -1.115902 0.011793
0.182978 -1.133352 -0.055995
0.201611 -1.092532 -0.004080
0.146928 -1.113335 -0.076368
0.128724 -1.129572 -0.041458
0.145661 -1.105605 0.050459
0.213275 -1.141466 0.009791
0.133750 -1.066189 -0.003969
0.178073 -1.143064 0.029937
0.194475 -1.067067 0.004788
0.169854 -0.265292 0.110250
0.173600 -0.296531 0.112439
0.067520 0.147857 0.170611
0.082875 0.223848 -0.024680
0.029735 0.453403 0.307540
0.023773 0.544213 0.267654
-0.000492 0.519926 0.226517
0.016916 0.365612 0.188425
0.045377 0.385309 0.137614
0.041873 0.552902 0.278097
0.045599 0.575743 0.212449
0.054081 0.552545 0.152770
0.012273 0.411973 0.275280
0.013563 0.538696 0.181198
0.049762 0.571692 0.178872
0.067353 0.326419 0.239519
0.036730 0.471543 0.138033
0.008106 0.447938 0.168521
0.068323 0.478143 0.123048
0.003201 0.422318 0.231712
0.062109 0.328405 0.292482
0.016868 0.286459 0.161338
-0.019570 0.231925 0.178025
-0.086809 0.172269 0.193790
-0.087583 0.098912 0.054455
-0.042820 0.164697 0.188713
-0.207429 0.063204 0.201758
-0.143534 0.224663 0.210626
-0.002479 0.075332 0.153277
-0.084779 -0.042719 0.055868
-0.064276 -0.076452 0.092673
0.035657 0.084465 0.162920
0.021538 0.203618 0.169244
-0.101463 0.290655 0.086002
-0.063158 0.301429 0.164821
-0.066277 -0.002742 -0.002971
-0.076200 0.148515 -0.022556
-0.052351 0.298935 0.036988
-0.141158 0.121054 0.142487
-0.226238 0.074344 0.205768
-0.162878 0.117339 0.122749
-0.094436 -0.189559 -0.030704
-0.108348 -0.177375 0.022479
-0.032174 -0.293200 -0.083085
-0.120167 -0.349843 0.017735
-0.108219 -0.373334 -0.016923
-0.068330 -0.338923 -0.062489
0.007325 -0.086050 0.135618
0.027010 -0.214682 0.115076
-0.107513 -0.193739 0.044656
0.013171 -0.328876 -0.060465
-0.115464 -0.358014 0.051297
-0.066249 -0.360779 0.093030
-0.096220 -0.366040 0.078202
-0.053509 0.161027 -0.035054
0.017778 -0.349508 -0.052331
-0.088498 -0.398798 -0.047219
-0.118786 -0.416730 0.009914
-0.021979 -0.240054 0.103816
-0.058901 -0.247795 0.087904
0.020325 0.053149 0.151933
0.038286 -0.383221 -0.007300
-0.073119 0.092832 0.081180
-0.088942 -0.466727 0.069980
-0.057298 -0.459776 0.080000
-0.116053 -0.431599 0.044695
-0.069072 -0.456169 -0.063197
-0.100193 -0.525208 0.036942
-0.109818 -0.516007 0.007796
-0.084711 -0.521262 -0.044819
-0.049123 -0.482701 -0.074890
-0.028427 -0.481031 -0.078868
-0.008978 -0.480028 -0.071293
-0.030897 -0.618631 -0.068128
-0.053894 -0.592420 -0.065659
-0.098204 -0.614708 -0.025690
0.011146 -0.632909 -0.035957
-0.031172 -0.626457 0.043623
-0.018414 -0.651385 0.010634
-0.004638 -0.536804 -0.060601
-0.083343 -0.580435 0.032875
-0.086400 -0.577172 -0.044470
0.010961 -0.580377 -0.002689
-0.054417 -0.655593 0.043990
-0.079051 -0.657987 0.030721
-0.097335 -0.671554 -0.022730
-0.011950 -0.654306 -0.057663
-0.096490 -0.691438 -0.050103
-0.084368 -0.683148 -0.070533
-0.087010 -0.712414 0.008201
-0.009701 -0.727365 -0.022895
-0.106655 -0.757012 -0.056057
-0.000349 -0.826266 -0.044069
-0.004408 -0.794999 -0.025176
-0.016607 -0.784925 -0.086782
-0.092050 -0.785169 -0.078782
-0.109897 -0.767666 -0.024729
-0.095742 -0.809245 -0.000454
-0.069269 -0.811804 0.011357
-0.011689 -0.865718 -0.027728
-0.099165 -0.868541 -0.055553
-0.082558 -0.906163 -0.071603
-0.102374 -0.871614 -0.026841
-0.080684 -0.956321 -0.008533
-0.064850 -0.918296 0.000715
-0.017779 -0.943258 -0.042339
-0.027998 -0.896847 -0.074113
-0.040650 -0.898495 -0.080836
-0.056123 -0.941792 -0.077424
0.043767 -0.332335 -0.005146
-0.000592 -0.465956 0.051465
0.001030 -0.528852 0.033666
-0.021059 -0.831591 -0.009142
-0.040594 -0.741885 0.006659
-0.062014 -0.724717 0.017724
-0.053879 0.022916 -0.021123
-0.090060 0.179433 0.129653
0.007031 0.124838 -0.058620
-0.013072 -0.339468 -0.072309
-0.238041 0.082583 0.118588
0.026093 -0.201829 -0.105149
0.034048 0.008343 -0.050417
-0.094030 -0.290695 -0.044035
-0.095424 0.118359 0.009012
-0.009698 -0.268871 0.084669
-0.015261 0.277591 0.156193
0.052525 0.246776 0.177477
0.023915 0.346546 0.090444
0.012758 0.355085 0.141243
0.008503 0.343251 0.152293
0.036476 -0.021099 0.146132
-0.168557 0.146997 0.208598
-0.021156 -0.038697 0.116100
-0.024176 -0.484441 0.067161
-0.045866 -0.920586 -0.005065
-0.232175 0.056183 0.127125
-0.259116 0.099107 0.131731
-0.173588 0.178597 0.208766
-0.095222 0.165301 0.172701
-0.177463 0.145800 0.109208
-0.060925 0.225565 -0.011362
-0.089591 -0.219861 -0.035775
-0.104652 -0.225407 -0.018634
0.025308 -0.311447 0.063565
0.038968 -0.385768 0.012250
-0.033356 -0.782494 -0.097226
-0.053927 -0.779751 -0.099767
-0.072976 -0.744369 -0.090791
-0.081020 0.051055 0.016279
-0.034591 -0.352394 0.091301
-0.098753 -0.235908 0.061948
-0.085191 -0.244027 0.077313
0.012059 -0.542106 -0.029801
-0.000017 -0.789176 -0.058677
-0.206509 -0.082539 0.254358
-0.192403 -0.108762 0.240296
-0.250034 -0.013402 0.169012
-0.273521 -0.037490 0.246889
-0.245060 -0.139718 0.250520
-0.204812 -0.126356 0.229445
-0.287651 -0.073286 0.179638
-0.323341 -0.038498 0.194094
-0.264821 0.036525 0.212784
-0.250341 0.014008 0.207741
-0.209411 0.034121 0.173612
-0.219745 0.044611 0.201168
-0.289428 0.061200 0.194284
-0.259497 0.005953 0.146434
-0.258572 -0.102993 0.262644
-0.315187 0.048271 0.176495
-0.250804 -0.079971 0.178891
-0.298552 -0.053882 0.234204
-0.296332 -0.011879 0.138796
-0.333071 -0.017883 0.162583
-0.301343 0.026982 0.210511
-0.075137 -0.111256 -0.039335
-0.072701 -0.190503 0.085560
-0.020238 -0.177869 0.100644
-0.171091 0.230518 0.182480
-0.114522 0.187537 0.214725
-0.140803 0.195517 0.104242
-0.093167 0.298714 0.162122
-0.119154 0.254949 0.201110
-0.107200 0.237596 0.210975
-0.130171 0.264383 0.186069
-0.077684 0.236988 0.207569
-0.253566 -0.016177 0.234725
-0.169257 -0.137538 0.292200
-0.102383 -0.201240 0.352219
-0.081857 -0.214997 0.298358
-0.137370 -0.186579 0.279586
-0.182313 -0.196591 0.299377
-0.181696 -0.167654 0.322671
-0.116006 -0.238071 0.371510
-0.131446 -0.223491 0.374529
-0.094519 -0.193490 0.312797
-0.089254 -0.209148 0.275992
-0.059083 -0.231226 0.367605
-0.236103 0.136329 0.178342
-0.082358 0.031746 0.060164
-0.021176 0.007468 -0.039506
-0.035493 0.337735 0.077288
-0.100988 0.301626 0.140092
-0.231299 0.148116 0.158148
-0.032374 -0.097373 -0.065244
-0.085833 -0.078902 -0.013260
-0.006301 -0.065073 -0.055982
0.007479 0.234993 -0.022970
-0.014983 0.233437 -0.016808
-0.121224 0.243250 0.082955
-0.026895 0.295646 0.025333
0.003364 -0.175406 -0.100544
-0.034505 -0.166456 -0.083000
-0.113423 -0.251327 0.034549
-0.022463 -0.149646 0.101950
-0.085498 -0.129340 0.074205
-0.067511 -0.139218 0.087979
-0.026880 -1.007400 -0.035095
-0.036612 -1.002720 -0.070873
-0.083487 -1.012928 -0.021916
-0.028859 -1.040699 -0.010448
-0.023940 -1.038300 -0.063229
-0.070274 -1.041640 -0.056990
-0.134147 -1.139356 0.143286
-0.137479 -1.148833 0.121875
-0.147294 -1.131388 0.091647
-0.054960 -1.015147 0.001737
-0.076733 -1.016158 -0.004745
-0.029994 -1.062686 -0.072218
-0.060932 -1.064498 0.022674
-0.097425 -1.106469 0.088852
-0.133481 -1.117237 0.044519
-0.141944 -1.136699 0.022073
-0.085861 -1.131553 0.107721
-0.082065 -1.142030 0.084052
-0.139353 -1.148760 0.029416
-0.093119 -1.127694 -0.034248
-0.090177 -1.089039 -0.026008
-0.024446 -1.110746 -0.081015
-0.014504 -1.129298 -0.063133
-0.056924 -1.105822 0.043775
-0.058373 -1.142050 -0.066620
-0.020969 -1.139592 -0.044959
-0.061863 -1.138771 0.003428
-0.086722 -1.064101 -0.014602
-0.092350 -0.300123 0.078832
3 22 14 1
3 17 2 5
3 24 4 6
3 6 4 3
3 4 10 3
3 24 20 11
3 23 3 10
3 19 11 12
3 12 11 20
3 1 227 22
3 6 3 1
3 14 2 17
3 10 4 15
3 5 25 17
3 4 11 15
3 24 11 4
3 19 15 11
3 12 18 19
3 24 9 20
3 7 20 9
3 21 20 7
3 21 7 16
3 265 3 23
3 15 270 10
3 3 227 1
3 8 7 9
3 3 265 227
3 21 16 274
3 20 21 12
3 15 19 270
3 14 17 6
3 12 21 18
3 18 21 274
3 13 7 8
3 5 271 133
3 16 7 13
3 2 14 0
3 24 6 17
3 17 9 24
3 125 26 33
3 134 132 170
3 146 201 44
3 177 182 176
3 30 208 201
3 206 125 33
3 32 119 31
3 26 133 33
3 40 28 38
3 131 134 170
3 162 130 39
3 42 41 43
3 42 43 126
3 264 13 383
3 45 55 46
3 120 62 49
3 62 120 56
3 56 120 143
3 223 221 46
3 204 35 135
3 211 210 212
3 61 60 137
3 71 51 124
3 64 256 147
3 147 256 225
3 52 145 205
3 32 205 145
3 143 126 53
3 53 126 43
3 136 127 70
3 53 43 208
3 29 119 65
3 69 80 62
3 51 71 50
3 50 71 73
3 81 62 80
3 72 82 71
3 73 71 82
3 76 92 75
3 77 87 88
3 149 85 68
3 82 81 76
3 76 81 77
3 75 82 76
3 78 85 149
3 76 77 88
3 78 89 112
3 91 92 117
3 88 98 99
3 94 93 102
3 96 100 95
3 95 100 114
3 141 142 228
3 103 230 102
3 105 231 103
3 103 231 230
3 105 104 231
3 127 136 108
3 68 109 63
3 68 110 109
3 110 68 85
3 110 85 111
3 85 78 111
3 83 87 77
3 82 75 73
3 112 111 78
3 117 92 140
3 91 117 138
3 304 147 225
3 211 172 207
3 35 212 135
3 180 179 28
3 221 47 48
3 31 206 216
3 29 203 36
3 36 39 29
3 63 148 144
3 127 61 70
3 70 61 137
3 25 133 26
3 168 131 170
3 151 180 28
3 49 126 120
3 32 316 205
3 147 304 224
3 148 63 128
3 118 109 110
3 106 113 114
3 122 153 169
3 134 131 182
3 130 167 181
3 123 162 39
3 177 132 134
3 31 119 27
3 119 29 39
3 153 182 131
3 218 41 42
3 208 44 201
3 74 137 60
3 73 74 60
3 118 86 67
3 67 86 66
3 118 110 79
3 79 110 111
3 72 81 82
3 73 75 74
3 84 74 75
3 84 75 90
3 90 75 91
3 90 91 97
3 115 113 116
3 138 139 141
3 117 140 139
3 141 107 101
3 256 64 144
3 81 80 77
3 202 121 204
3 365 127 108
3 64 59 144
3 90 89 78
3 89 150 96
3 55 152 46
3 50 60 55
3 55 60 61
3 27 37 181
3 189 156 157
3 157 156 166
3 163 167 158
3 168 164 171
3 171 129 168
3 170 132 163
3 169 171 161
3 169 129 171
3 170 164 168
3 169 153 129
3 157 160 189
3 158 167 166
3 157 165 161
3 189 160 184
3 159 158 185
3 163 159 164
3 170 163 164
3 165 166 162
3 132 167 163
3 28 8 25
3 8 17 25
3 9 17 8
3 8 28 40
3 127 152 55
3 209 48 214
3 41 44 43
3 44 208 43
3 5 133 25
3 271 5 2
3 0 271 2
3 151 26 125
3 40 207 8
3 34 174 175
3 212 210 135
3 135 210 213
3 179 183 38
3 134 182 177
3 39 213 123
3 180 125 27
3 132 177 27
3 181 132 27
3 165 169 161
3 157 166 165
3 159 155 164
3 154 155 188
3 186 156 187
3 188 184 160
3 195 192 196
3 193 198 194
3 193 200 192
3 191 199 184
3 190 195 196
3 195 190 188
3 184 188 190
3 190 194 191
3 184 193 189
3 187 193 192
3 189 193 187
3 194 197 191
3 198 197 194
3 198 199 197
3 193 199 198
3 197 199 191
3 196 194 190
3 194 200 193
3 193 184 199
3 190 191 184
3 196 192 200
3 194 196 200
3 165 162 123
3 167 130 162
3 165 123 122
3 129 131 168
3 169 165 122
3 130 181 37
3 131 129 153
3 132 181 167
3 37 39 130
3 29 65 146
3 146 65 201
3 146 203 29
3 31 216 32
3 133 382 33
3 161 171 160
3 171 164 154
3 154 164 155
3 163 158 159
3 156 158 166
3 157 161 160
3 158 156 186
3 154 160 171
3 159 185 155
3 185 158 186
3 154 188 160
3 187 156 189
3 155 195 188
3 155 185 195
3 195 185 192
3 186 192 185
3 192 186 187
3 26 28 25
3 40 38 174
3 172 211 212
3 174 38 175
3 182 178 176
3 182 153 178
3 36 203 135
3 135 203 204
3 204 203 202
3 202 203 146
3 202 219 209
3 209 219 220
3 226 52 225
3 121 202 209
3 212 35 259
3 34 213 210
3 211 207 174
3 123 213 122
3 176 178 175
3 180 27 177
3 179 180 176
3 176 180 177
3 183 179 176
3 175 183 176
3 13 8 207
3 383 13 207
3 167 162 166
3 34 210 211
3 215 35 121
3 259 172 212
3 258 206 33
3 206 258 216
3 258 33 382
3 316 32 216
3 51 217 124
3 46 221 45
3 219 41 218
3 218 217 221
3 222 48 220
3 222 220 218
3 45 50 55
3 47 221 223
3 214 121 209
3 67 66 58
3 58 66 57
3 118 67 128
3 69 62 56
3 69 66 83
3 136 70 149
3 149 70 84
3 71 124 72
3 49 62 81
3 109 128 63
3 128 109 118
3 136 68 63
3 124 49 72
3 72 49 81
3 70 137 84
3 84 137 74
3 96 95 89
3 104 99 98
3 98 116 104
3 104 116 106
3 95 113 89
3 89 113 115
3 116 113 106
3 141 101 138
3 138 101 97
3 139 138 117
3 94 102 140
3 140 102 142
3 101 96 97
3 97 96 150
3 93 94 76
3 76 94 92
3 89 115 112
3 76 88 93
3 93 88 99
3 91 138 97
3 103 102 93
3 99 104 105
3 114 113 95
3 141 139 142
3 103 93 105
3 105 93 99
3 96 101 100
3 100 101 107
3 42 124 218
3 42 126 124
3 256 143 54
3 256 144 257
3 48 222 221
3 59 64 147
3 127 55 61
3 146 44 41
3 219 146 41
3 30 226 53
3 386 52 205
3 202 146 219
3 48 47 214
3 219 218 220
3 232 114 234
3 229 228 142
3 238 231 104
3 232 234 253
3 230 231 255
3 232 253 240
3 244 236 235
3 236 237 235
3 236 245 237
3 245 243 237
3 102 230 229
3 141 228 107
3 107 228 233
3 100 233 114
3 114 232 106
3 232 238 106
3 106 238 104
3 238 232 240
3 248 229 230
3 239 228 229
3 240 241 238
3 241 255 238
3 231 238 255
3 251 235 242
3 251 244 235
3 246 255 243
3 255 246 248
3 248 246 247
3 249 239 247
3 239 249 234
3 234 249 250
3 242 243 241
3 241 243 255
3 240 242 241
3 242 240 251
3 250 244 251
3 251 253 250
3 250 253 234
3 243 252 246
3 252 247 246
3 247 250 249
3 240 253 251
3 247 239 229
3 229 248 247
3 254 245 244
3 254 252 245
3 244 250 254
3 252 254 247
3 250 247 254
3 244 245 236
3 252 243 245
3 237 243 242
3 237 242 235
3 234 233 239
3 239 233 228
3 230 255 248
3 207 172 383
3 116 86 79
3 87 86 116
3 145 52 30
3 52 226 30
3 128 58 148
3 79 111 112
3 225 256 173
3 79 86 118
3 128 67 58
3 58 57 257
3 225 173 226
3 53 173 54
3 54 173 256
3 143 57 56
3 83 77 80
3 83 86 87
3 83 66 86
3 143 256 257
3 201 65 145
3 54 143 53
3 56 57 69
3 69 57 66
3 83 80 69
3 53 208 30
3 30 201 145
3 53 226 173
3 87 116 88
3 88 116 98
3 79 112 116
3 116 112 115
3 120 126 143
3 222 218 221
3 126 49 124
3 257 144 58
3 58 144 148
3 217 218 124
3 143 257 57
3 213 39 36
3 45 217 50
3 50 217 51
3 73 60 50
3 92 91 75
3 140 92 94
3 136 63 108
3 108 144 59
3 149 84 78
3 90 78 84
3 174 34 211
3 213 178 153
3 204 121 35
3 220 48 209
3 122 213 153
3 178 213 175
3 175 213 34
3 45 221 217
3 149 68 136
3 142 139 140
3 97 150 90
3 90 150 89
3 229 142 102
3 233 234 114
3 233 100 107
3 108 63 144
3 26 151 28
3 125 31 27
3 207 40 174
3 147 224 59
3 152 223 46
3 14 6 1
3 119 32 65
3 145 65 32
3 38 28 179
3 180 151 125
3 125 206 31
3 27 119 37
3 39 37 119
3 175 38 183
3 135 213 36
3 0 14 276
3 215 121 214
3 215 259 35
3 268 276 22
3 263 271 276
3 275 273 263
3 269 262 261
3 261 266 269
3 260 262 268
3 227 265 261
3 266 261 23
3 272 267 18
3 261 262 260
3 263 268 275
3 23 261 265
3 270 269 266
3 262 269 273
3 260 268 22
3 270 267 269
3 19 18 267
3 272 273 269
3 274 272 18
3 276 268 263
3 270 266 10
3 267 272 269
3 274 16 272
3 260 227 261
3 14 22 276
3 277 271 263
3 272 264 273
3 273 264 263
3 267 270 19
3 268 262 275
3 264 16 13
3 264 272 16
3 385 290 381
3 387 439 283
3 291 461 285
3 316 287 284
3 281 288 278
3 277 381 382
3 379 280 436
3 373 463 259
3 465 292 436
3 436 296 395
3 297 298 431
3 385 381 277
3 383 384 264
3 431 371 460
3 300 301 313
3 286 472 303
3 471 305 406
3 313 321 300
3 300 321 307
3 460 371 462
3 302 312 378
3 309 319 308
3 308 319 320
3 389 366 399
3 407 315 314
3 388 386 316
3 311 365 317
3 301 378 312
3 319 309 321
3 313 324 321
3 321 324 323
3 311 317 328
3 312 322 325
3 313 301 324
3 325 337 324
3 317 408 328
3 328 408 335
3 342 329 332
3 330 344 337
3 335 332 329
3 341 331 343
3 343 331 337
3 341 345 340
3 352 345 341
3 342 409 329
3 347 344 351
3 352 353 345
3 354 345 353
3 355 361 348
3 409 362 350
3 353 358 359
3 361 355 473
3 358 356 475
3 358 475 359
3 338 366 367
3 346 334 369
3 355 368 473
3 473 368 390
3 331 340 336
3 337 322 330
3 327 329 330
3 337 344 343
3 332 338 346
3 346 338 334
3 369 370 354
3 403 330 402
3 402 329 401
3 399 59 380
3 365 108 399
3 301 300 398
3 302 299 374
3 290 438 441
3 467 47 376
3 310 464 373
3 375 392 395
3 431 461 371
3 291 371 461
3 371 379 292
3 382 133 277
3 264 384 385
3 277 133 271
3 469 398 300
3 386 388 303
3 258 281 287
3 317 365 400
3 400 365 399
3 389 367 366
3 333 334 338
3 369 354 368
3 368 354 390
3 296 294 391
3 425 459 392
3 394 420 294
3 279 318 284
3 372 318 279
3 455 284 318
3 288 382 278
3 404 280 379
3 434 454 393
3 397 398 297
3 297 398 298
3 314 433 407
3 389 399 405
3 311 328 374
3 374 328 327
3 374 327 326
3 312 325 301
3 319 339 389
3 389 339 333
3 323 324 336
3 326 327 330
3 329 327 328
3 329 328 335
3 363 402 401
3 364 402 363
3 127 365 306
3 406 469 307
3 307 469 300
3 314 315 380
3 337 331 324
3 337 325 322
3 333 338 367
3 309 501 307
3 378 301 398
3 306 374 299
3 372 294 296
3 282 435 387
3 422 418 454
3 393 454 387
3 407 432 406
3 332 408 338
3 362 409 348
3 381 290 441
3 282 394 435
3 311 374 306
3 410 442 413
3 411 426 412
3 427 424 413
3 426 423 412
3 430 413 442
3 421 423 420
3 412 423 421
3 375 428 429
3 428 375 391
3 428 391 423
3 442 410 411
3 442 419 418
3 295 418 421
3 459 425 422
3 429 392 375
3 294 420 423
3 423 391 294
3 411 419 442
3 282 295 421
3 416 447 414
3 421 420 282
3 416 429 428
3 422 430 442
3 430 422 425
3 413 430 427
3 430 417 427
3 428 426 416
3 277 264 385
3 263 264 277
3 306 152 127
3 461 298 305
3 278 381 281
3 384 458 437
3 293 289 457
3 457 289 458
3 458 384 457
3 464 463 373
3 437 440 290
3 290 440 438
3 393 387 283
3 296 436 372
3 372 394 294
3 441 439 435
3 439 387 435
3 393 283 434
3 441 435 279
3 279 435 394
3 279 281 441
3 392 429 425
3 430 425 417
3 448 443 424
3 443 413 424
3 413 443 410
3 424 417 414
3 443 411 410
3 445 452 451
3 452 445 447
3 447 446 452
3 451 453 445
3 450 444 448
3 451 446 443
3 449 453 444
3 453 449 447
3 451 443 448
3 452 446 451
3 447 445 453
3 444 453 451
3 450 449 444
3 448 444 451
3 449 450 447
3 447 450 448
3 395 391 375
3 295 454 418
3 454 459 422
3 296 391 395
3 295 282 387
3 420 394 282
3 454 295 387
3 371 292 456
3 291 379 371
3 285 404 291
3 456 310 373
3 372 279 394
3 419 411 412
3 415 426 411
3 427 417 424
3 426 415 447
3 429 416 417
3 426 447 416
3 416 414 417
3 446 415 411
3 443 446 411
3 446 447 415
3 414 447 448
3 448 424 414
3 290 385 437
3 437 385 384
3 278 382 381
3 455 318 404
3 404 318 280
3 284 455 316
3 457 383 466
3 434 459 454
3 292 310 456
3 371 456 462
3 462 377 214
3 303 472 470
3 225 303 470
3 305 285 461
3 472 286 471
3 471 286 285
3 436 459 465
3 318 372 280
3 292 379 436
3 310 292 396
3 293 466 464
3 466 383 463
3 457 384 383
3 459 436 395
3 465 459 289
3 466 463 464
3 463 172 259
3 464 396 293
3 395 392 459
3 283 439 438
3 283 438 440
3 440 434 283
3 442 418 422
3 419 421 418
3 428 423 426
3 421 419 412
3 417 425 429
3 259 215 373
3 215 214 377
3 281 279 284
3 281 284 287
3 382 288 258
3 216 287 316
3 299 302 378
3 297 431 468
3 468 397 297
3 306 299 152
3 223 376 47
3 462 214 460
3 462 456 377
3 400 366 338
3 399 366 400
3 302 322 312
3 325 324 301
3 346 349 348
3 360 354 353
3 369 368 346
3 346 368 349
3 401 350 363
3 357 351 403
3 329 409 350
3 343 344 347
3 345 354 370
3 343 347 341
3 341 347 352
3 403 351 344
3 330 329 402
3 350 401 329
3 409 342 346
3 359 360 353
3 349 355 348
3 347 351 356
3 356 351 357
3 358 353 352
3 349 368 355
3 354 360 390
3 362 363 350
3 352 347 358
3 358 347 356
3 361 362 348
3 380 315 405
3 305 298 469
3 469 298 398
3 305 469 406
3 399 380 405
3 378 397 468
3 376 223 152
3 314 380 224
3 311 306 365
3 380 59 224
3 433 225 470
3 404 285 455
3 379 291 404
3 373 377 456
3 431 298 461
3 470 472 432
3 433 304 225
3 467 214 47
3 431 460 468
3 214 467 460
3 271 0 276
3 23 10 266
3 227 260 22
3 478 364 474
3 478 475 357
3 473 390 476
3 363 477 474
3 486 479 489
3 490 489 480
3 479 481 480
3 491 480 481
3 489 479 480
3 488 491 487
3 487 491 481
3 482 476 390
3 390 360 482
3 482 360 483
3 474 364 363
3 356 357 475
3 477 363 362
3 360 359 483
3 485 483 500
3 482 483 485
3 475 478 493
3 478 474 484
3 476 482 485
3 500 483 475
3 359 475 483
3 488 487 493
3 487 500 493
3 488 493 492
3 497 492 493
3 495 494 477
3 477 494 484
3 486 489 496
3 496 489 490
3 500 487 485
3 485 487 481
3 481 486 485
3 496 485 486
3 496 490 498
3 477 476 498
3 496 498 476
3 491 488 492
3 492 497 491
3 490 499 498
3 485 496 476
3 497 493 478
3 490 491 499
3 499 491 497
3 499 497 498
3 498 497 495
3 490 480 491
3 486 481 479
3 474 477 484
3 473 476 477
3 493 500 475
3 333 339 370
3 370 339 345
3 345 339 340
3 303 388 286
3 308 320 405
3 405 320 389
3 320 319 389
3 433 432 407
3 333 367 389
3 501 309 308
3 315 501 308
3 433 470 432
3 286 388 285
3 285 388 455
3 406 432 471
3 321 309 307
3 323 319 321
3 331 336 324
3 331 341 340
3 340 339 336
3 323 336 319
3 319 336 339
3 501 407 406
3 432 472 471
3 285 305 471
3 369 334 370
3 370 334 333
3 467 376 299
3 398 397 378
3 308 405 315
3 299 376 152
3 407 501 315
3 307 501 406
3 302 374 326
3 403 344 330
3 59 399 108
3 396 292 465
3 330 322 326
3 317 338 408
3 332 335 408
3 342 332 346
3 346 348 409
3 440 458 289
3 289 459 434
3 289 434 440
3 464 310 396
3 466 293 457
3 467 468 460
3 400 338 317
3 322 302 326
3 402 357 403
3 402 364 357
3 468 467 378
3 357 364 478
3 473 477 361
3 362 361 477
3 484 497 478
3 497 484 494
3 495 477 498
3 494 495 497
3 299 378 467
3 455 388 316
3 314 304 433
3 281 381 441
3 262 273 275
3 288 281 258
3 372 436 280
3 441 438 439
3 293 465 289
3 465 293 396
3 440 437 458
3 373 215 377
3 386 303 52
3 258 287 216
3 383 172 463
3 303 225 52
3 224 304 314
3 386 205 316
